<?xml version="1.0" encoding="utf-8"?>
<!-- Generator: Adobe Illustrator 26.5.0, SVG Export Plug-In . SVG Version: 6.00 Build 0)  -->
<svg version="1.1" id="Layer_1" xmlns="http://www.w3.org/2000/svg" xmlns:xlink="http://www.w3.org/1999/xlink" x="0px" y="0px"
	 viewBox="0 0 512 512" style="enable-background:new 0 0 512 512;" xml:space="preserve">
<style type="text/css">
	.st0{fill:#E42A28;}
</style>
<g id="XMLID_29_">
	<path id="XMLID_31_" class="st0" d="M140.23,254.19h-23.57l-9.26,40.97l-8.42,37.46h26.66l5.33-28.9h33.81l5.61,28.9h26.66
		l-34.66-153.08h-28.62l-15.85,68.75h23.43c0,0,4.21-22.17,6.59-33.11c1.96,10.94,6.31,33.11,6.31,33.11h14.45v5.89H155.8
		l5.47,29.75h-26.8L140.23,254.19z"/>
	<polygon id="XMLID_35_" class="st0" points="260.47,266.96 238.72,266.96 232.69,241.42 232.69,266.96 206.45,266.96 
		206.45,179.41 231.99,179.41 	"/>
	<path id="XMLID_36_" class="st0" d="M3.99,182.77c3.51-2.67,8.42-3.23,13.05-3.23c18.24,0,36.34,0,54.58,0
		c4.63,0.14,9.68,0.28,13.61,2.81c3.23,2.1,4.63,5.61,4.63,8.98c0,11.65,0,35.08,0,35.08H62.63v-27.08h-35.5v50.93H0.06
		c0,0,0-39.29,0-58.93C-0.08,188.1,1.18,184.88,3.99,182.77z"/>
	<polygon id="XMLID_37_" class="st0" points="331.47,179.41 405.83,179.41 405.83,199.89 358.69,199.89 358.69,244.37 
		399.52,244.37 399.52,264.15 358.69,264.15 358.69,267.1 331.47,267.1 	"/>
	<path id="XMLID_38_" class="st0" d="M487.07,179.41c5.05,0,10.52,0,15.01,2.1c4.21,2.24,5.61,6.45,5.61,10.38
		c0,19.5,0,39.01,0,58.51c0.14,4.35-2.1,9.54-7.3,11.22c-5.75,1.54-12.07,1.4-17.96,1.54c0.56,1.26,1.54,3.79,1.54,3.79h-26.94
		l-2.53-5.05v-14.45h25.96v-48.55h-33.95v67.91H419.3v-87.55h67.77V179.41z"/>
	<path id="XMLID_39_" class="st0" d="M89.71,250.82c0,0,0.28,47.71,0,71.56c0,6.17-7.44,10.52-14.17,10.24
		c-19.5,0.14-39.01-0.14-58.51,0c-4.21,0-8.7-0.28-12.21-2.53c-3.51-2.1-4.63-5.89-4.77-9.4c0-20.77,0-62.58,0-62.58h27.22v54.72
		h35.22V269.9H42.57v-11.93h9.12v-7.3"/>
	<rect id="XMLID_40_" x="206.59" y="272.57" class="st0" width="26.1" height="59.91"/>
	<polygon id="XMLID_41_" class="st0" points="240.55,272.57 281.94,272.57 268.05,318.59 254.44,318.59 	"/>
	<polygon id="XMLID_42_" class="st0" points="331.61,272.57 358.69,272.57 358.69,312.28 406.67,312.28 406.67,332.62 
		331.61,332.62 	"/>
	<rect id="XMLID_43_" x="419.3" y="272.57" class="st0" width="27.08" height="59.91"/>
	<polygon id="XMLID_44_" class="st0" points="458.73,272.57 486.37,272.57 512.05,332.62 483.7,332.62 	"/>
	<rect id="XMLID_46_" x="289.8" y="272.57" class="st0" width="26.1" height="59.91"/>
	<polygon id="XMLID_47_" class="st0" points="262.3,267.1 283.9,267.1 289.94,241.56 289.94,267.1 316.17,267.1 316.17,179.41 
		290.64,179.41 	"/>
</g>
</svg>
